<svg width="109" height="100" fill="none" xmlns="http://www.w3.org/2000/svg"><path d="M105 50c0 27.614-22.386 50-50 50S5 77.614 5 50 27.386 0 55 0s50 22.386 50 50Z" fill="#240A7B"/><path d="M35.492 74.693c0-.538 2.769-3.064 4.261-3.886.79-.436 2.228-1.078 3.196-1.427 2.064-.744 2.011-.507 1.169-5.296-1.052-5.981-2.513-10.767-4.523-14.818-.642-1.294-1.27-2.456-1.396-2.583-.127-.126-.477.578-.779 1.565-.46 1.503-.641 1.77-1.117 1.647-.528-.136-.535-.11-.088.378.517.566.329 1.613-.234 1.301-.243-.134-.24-.08.008.185.423.453.171 1.261-.306.978-.251-.149-.254-.09-.012.223.228.295.238.737.034 1.453l-.294 1.03-.554-1.225c-.305-.673-.713-2.234-.907-3.47-.346-2.203-.361-2.23-.812-1.495-.252.411-.562.748-.688.748-.125 0-.228.208-.228.461 0 .344-.17.408-.667.252-.585-.184-.618-.152-.271.261.494.59.197 1.123-.483.87-.428-.158-.45-.115-.142.26.42.513.212.87-.377.647-.283-.108-.346.036-.22.508.119.453.066.592-.171.447-.214-.131-.344-.003-.344.338 0 .303-.192.807-.425 1.12-.408.55-.433.55-.637.03-.325-.83.372-5.012 1.122-6.738.367-.845 1.228-2.217 1.913-3.05l1.245-1.511-.792-.026-1.758-.055c-.69-.021-.968-.17-.975-.525-.008-.451-.035-.45-.312.02-.166.283-.43.515-.585.515-.155 0-.293-.232-.306-.515-.014-.307-.084-.367-.174-.147-.082.202-.339.368-.57.368-.232 0-.424-.166-.426-.368-.004-.287-.058-.285-.246.01-.167.258-.458.297-.932.124L25 43.044l.92-.648c2.198-1.549 4.264-2.244 6.673-2.246l2.304-.003.007-1.176c.003-.647.265-1.74.58-2.429.658-1.433 2.032-3.307 2.425-3.307.362 0-.048 2.447-.456 2.717-.216.142-.185.217.091.22.32.004.291.143-.12.593-.362.395-.414.588-.158.588.297 0 .29.108-.029.498-.277.338-.288.427-.036.276.204-.121.372-.088.372.074 0 .161-.133.375-.295.474-.186.114-.162.32.065.56.287.304.642.072 1.798-1.18.81-.877 2.114-1.879 2.983-2.292 1.457-.692 5.162-1.544 5.455-1.254.3.296-1.853 1.973-2.37 1.846-.433-.107-.47-.052-.188.283.279.332.208.47-.355.694-.386.153-.586.286-.443.297.143.01.094.215-.108.456-.202.241-.472.374-.6.296-.128-.078-.314.07-.415.328-.107.276-.37.398-.64.296-.299-.114-.385-.056-.247.165.122.196-.15.625-.648 1.017l-.86.679 1.454-.433c2.848-.848 5.889-.427 8.706 1.206l1.407.817-.859.283c-.592.196-1.028.179-1.404-.054-.44-.27-.546-.25-.546.107 0 .54-.34.569-.876.076-.32-.294-.359-.294-.19 0 .136.24.005.367-.378.367-.323 0-.655-.165-.737-.367-.09-.22-.16-.16-.174.147-.012.283-.176.514-.362.514s-.521-.231-.744-.514c-.386-.49-.396-.49-.224 0 .157.447-.02.514-1.345.514h-1.526l2.285 1.839c1.257 1.01 2.496 2.158 2.753 2.55l.468.71-1.482-.2c-.814-.11-1.521-.317-1.57-.46-.048-.142-.35-.19-.668-.108-.333.086-.58.003-.58-.196 0-.19-.136-.263-.3-.163-.165.101-.384-.035-.487-.301-.15-.388-.24-.406-.444-.092-.195.299-.298.242-.43-.235-.129-.463-.337-.586-.794-.468-.501.13-.58.06-.413-.37.163-.42.123-.462-.195-.201-.297.244-.5.235-.784-.032-.212-.198.243.555 1.01 1.675 3.334 4.869 6.263 12.5 7.431 19.361.174 1.02.264 1.103 1.19 1.103h1.001l.185-2.28c.338-4.161 1.064-9.558 1.688-12.555 1.353-6.488 4.078-13.785 6.913-18.513.765-1.276 1.35-2.36 1.3-2.41-.05-.048-.736.309-1.526.795-.79.486-1.466.842-1.503.791-.038-.05-.304-.423-.59-.828l-.522-.735.202.976c.153.735.068 1.123-.346 1.576-.545.597-.55.594-.897-.535l-.348-1.134-.023 1.372c-.025 1.522-.553 1.995-1.127 1.01-.34-.582-.362-.564-.372.303-.01.861-.7 1.632-2.291 2.56-1.064.619 1.58-5.257 3.453-7.672 1.303-1.682 1.3-1.69-.412-1.219-1.014.279-1.223.251-1.56-.205-.367-.496-.39-.491-.39.086 0 .97-.819 1.063-1.338.15l-.455-.797.08.877c.096 1.062-.76 1.384-1.454.546-.432-.522-.442-.521-.265.024.104.32.018.668-.199.804-.57.359-.827.299-.827-.193 0-.242-.134-.44-.297-.44-.164 0-.298.264-.298.587 0 .327-.198.589-.446.589-.245 0-.445-.14-.445-.312 0-.171-.136-.228-.303-.126-.166.101-.231.297-.145.435.133.213-2.824 1.276-3.017 1.085-.171-.17 3.174-3.794 4.497-4.873 2.984-2.434 7.284-4.143 10.455-4.157l1.443-.006-1.454-1.258c-1.313-1.137-1.42-1.322-1.104-1.906.192-.356.225-.647.074-.647-.152 0-.359.213-.46.474-.15.388-.266.407-.633.106-.4-.329-.4-.444.01-1.063.399-.601.401-.694.022-.694-.241 0-.555.207-.698.46-.236.416-.297.416-.65-.005-.328-.39-.304-.56.142-1.048.56-.612.216-.831-.379-.243-.26.258-.462.244-.83-.058-.446-.366-.44-.43.062-.8.504-.371.488-.389-.203-.222-.603.147-.881.007-1.42-.715L51.525 15h.913c3.703 0 9.04 2.116 11.35 4.5l1.422 1.468 1.448-1.339c.795-.737 1.996-1.617 2.669-1.956 1.51-.762 4.29-1.496 5.666-1.496h1.032l-1.278 1.102c-.703.607-1.697 1.261-2.209 1.454-.512.194-.756.359-.542.368.828.035-.029.605-.909.605-.882 0-.9.023-.354.432.544.407.518.434-.463.475-.573.024-.8.105-.504.181.739.19.44.84-.346.754-.68-.075-.885.379-.265.586.283.094.265.251-.074.661-.419.505-.392.524.438.32 3.904-.963 6.361-.899 9.557.249 2.03.729 4.91 2.342 5.677 3.18.443.484.384.515-.986.519-.802.003-1.757.083-2.122.18-.53.14-.736.006-1.023-.666l-.36-.842-.111.81c-.138 1.004-1.031 1.092-1.493.146l-.322-.662-.02.662c-.015.496-.198.662-.729.662-.471 0-.782-.222-.93-.662l-.22-.662-.132.662c-.079.395-.349.662-.67.662-.297 0-.64-.298-.761-.662l-.221-.662-.132.662c-.115.582-.316.663-1.671.674l-1.54.013 1.724.708c3.069 1.261 5.562 3.397 7.206 6.173.827 1.396 2.35 5.413 2.134 5.627-.068.067-.723-.209-1.456-.614-1.207-.667-1.322-.826-1.23-1.695.094-.892.077-.913-.245-.298-.548 1.046-1.144.822-1.171-.44-.023-1.078-.03-1.085-.318-.306-.26.701-.366.755-.875.442-.444-.274-.54-.564-.408-1.24l.172-.882-.556.685c-.472.582-.609.62-.91.262-.205-.245-.284-.84-.187-1.42l.166-.998-.485.834c-.548.942-.408 1.002-2.936-1.265-.745-.668-1.09-.849-.968-.506.88 2.467 1.86 9.349 1.437 10.096-.203.359-.528.145-1.64-1.078-1.437-1.583-1.59-1.892-1.089-2.198.163-.1.297-.323.297-.495 0-.19-.183-.162-.468.072-.388.319-.515.313-.739-.037-.385-.603-.346-.792.241-1.162.434-.273.384-.299-.297-.156-.956.2-1.154-.481-.297-1.02.438-.276.396-.302-.266-.164-1.105.23-1.416-.645-.492-1.383l.683-.545-.706.197c-.455.127-.796.055-.961-.202-.416-.65-.308-.84.478-.84.41 0 .743-.133.743-.295 0-.161-.386-.294-.86-.294-.79 0-.88-.113-1.123-1.397l-.264-1.397-1.266 2.096c-4.265 7.059-6.941 18.248-7.659 32.025l-.2 3.827 2.342.68c1.288.375 3.445 1.191 4.792 1.815 2.29 1.06 6.448 3.608 6.794 4.163.085.136-7.745.247-17.4.247-12.038 0-17.556-.097-17.556-.308v.001Z" fill="#fff"/><clipPath id="a"><circle r="50" cx="55" cy="50"/></clipPath><path fill="#fff" clip-path="url(#a)" d="M0 57h108v27H0z"/><path d="M30.153 66.368c0 .217-.108.351-.325.403l-.078.013a.38.38 0 0 0-.091.013.901.901 0 0 1-.104.026l-.377.065V75h-.91a.87.87 0 0 1-.338-.065.716.716 0 0 1-.273-.234l-4.914-6.253c.017.19.026.325.026.403l.013.377v4.485l.845.117c.217.052.325.186.325.403V75H20.26v-.767c0-.217.108-.351.325-.403l.078-.013.195-.039.39-.065v-6.825l-.39-.065a2.56 2.56 0 0 1-.117-.026.244.244 0 0 0-.078-.013l-.078-.013c-.217-.052-.325-.186-.325-.403v-.767h1.898l.195.013c.06 0 .108.013.143.039a.274.274 0 0 1 .117.078l.13.156 4.94 6.279-.039-.442a4.943 4.943 0 0 1-.013-.416v-4.42l-.845-.117c-.217-.052-.325-.186-.325-.403v-.767h3.692v.767Zm7.37 1.703h-.754c-.156 0-.256-.082-.3-.247a18.083 18.083 0 0 1-.09-.832h-3.03v2.6h3.186v1.352H33.35v2.652h3.029c.017-.217.047-.494.09-.832.044-.165.144-.247.3-.247h.754V75h-6.916v-.767c0-.217.108-.351.325-.403l.078-.013a.244.244 0 0 0 .078-.013c.034-.009.073-.017.117-.026l.39-.065v-6.825l-.39-.065a2.501 2.501 0 0 1-.117-.026.244.244 0 0 0-.078-.013l-.078-.013c-.217-.052-.325-.186-.325-.403v-.767h6.916v2.47Zm14.822-1.703c0 .217-.108.351-.325.403l-.143.026-.364.065L48.978 75h-1.572l-2.054-6.422-.078-.26-.092-.312-.078.312-.078.26L42.947 75h-1.572l-2.523-8.138-.377-.065-.142-.026c-.217-.052-.325-.186-.325-.403v-.767h3.51v.767c0 .217-.109.351-.326.403a.144.144 0 0 0-.065.013l-.142.039a1.194 1.194 0 0 0-.221.052l1.339 4.745.117.455.09.52.117-.52c.044-.182.087-.334.13-.455l1.847-5.616a.594.594 0 0 1 .208-.273.585.585 0 0 1 .364-.13h.52c.156 0 .281.035.377.104.095.07.164.169.208.299l1.833 5.616c.112.33.195.637.247.923.034-.2.065-.36.09-.481.026-.147.061-.295.105-.442l1.339-4.732-.534-.117c-.216-.052-.324-.186-.324-.403v-.767h3.51v.767Zm14.727 0c0 .217-.108.351-.325.403l-.143.026-.364.065L63.705 75h-1.573l-2.054-6.422-.078-.26-.09-.312-.079.312-.078.26L57.673 75H56.1l-2.522-8.138-.377-.065-.143-.026c-.217-.052-.325-.186-.325-.403v-.767h3.51v.767c0 .217-.108.351-.325.403a.144.144 0 0 0-.065.013l-.143.039a1.192 1.192 0 0 0-.22.052l1.338 4.745.117.455.091.52.117-.52c.043-.182.087-.334.13-.455l1.846-5.616a.593.593 0 0 1 .208-.273.585.585 0 0 1 .364-.13h.52c.156 0 .282.035.377.104.095.07.165.169.208.299l1.833 5.616c.113.33.195.637.247.923.035-.2.065-.36.091-.481.026-.147.06-.295.104-.442l1.34-4.732-.534-.117c-.217-.052-.325-.186-.325-.403v-.767h3.51v.767Zm7.369 1.703h-.754c-.156 0-.256-.082-.3-.247a18.369 18.369 0 0 1-.09-.832h-3.03v2.6h3.186v1.352h-3.185v2.652h3.029c.017-.217.047-.494.09-.832.044-.165.144-.247.3-.247h.754V75h-6.916v-.767c0-.217.108-.351.325-.403l.078-.013a.244.244 0 0 0 .078-.013 2.56 2.56 0 0 1 .117-.026l.39-.065v-6.825l-.39-.065a2.56 2.56 0 0 1-.117-.026.244.244 0 0 0-.078-.013l-.078-.013c-.217-.052-.325-.186-.325-.403v-.767h6.916v2.47Zm6.49 2.99c.12.251.181.585.181 1.001 0 .399-.073.793-.22 1.183-.148.381-.36.706-.638.975-.277.277-.62.494-1.026.65-.4.156-.858.234-1.378.234h-.195c-.824 0-1.72-.165-2.692-.494v-2.418h.742c.164 0 .264.078.299.234.025.113.064.472.117 1.079.364.113.957.169 1.78.169.495 0 .88-.117 1.157-.351.27-.234.403-.572.403-1.014 0-.243-.06-.446-.181-.611a1.27 1.27 0 0 0-.495-.39 3.676 3.676 0 0 0-.688-.273l-.286-.078-.508-.156a8.346 8.346 0 0 1-.793-.312 2.742 2.742 0 0 1-.702-.481 1.879 1.879 0 0 1-.48-.728 2.85 2.85 0 0 1-.196-1.079c0-.355.07-.689.209-1.001.13-.33.329-.62.598-.871.25-.234.572-.433.962-.598a3.445 3.445 0 0 1 1.313-.234c.91 0 1.806.178 2.69.533v2.405h-.74c-.157 0-.256-.082-.3-.247-.026-.121-.065-.472-.117-1.053-.311-.139-.819-.208-1.52-.208-.234 0-.443.026-.624.078-.2.07-.352.152-.456.247-.13.113-.225.238-.285.377-.061.13-.091.29-.091.481 0 .208.064.39.195.546.13.156.29.282.48.377.252.121.486.217.703.286.086.026.35.113.793.26.182.06.446.169.793.325.26.113.493.269.701.468.226.208.39.438.494.689Zm8.383-3.237h-.741c-.165 0-.269-.082-.312-.247a5.974 5.974 0 0 1-.065-.533h-1.911v6.669l.377.065a.901.901 0 0 1 .104.026.38.38 0 0 0 .091.013l.078.013c.225.052.338.186.338.403V75h-3.718v-.767c0-.217.108-.351.325-.403l.078-.013a.244.244 0 0 0 .078-.013c.035-.009.074-.017.117-.026l.377-.065v-6.682h-1.911a5.299 5.299 0 0 1-.065.546c-.043.165-.143.247-.299.247h-.754v-2.223h7.813v2.223Z" fill="#240A7B"/></svg>